<svg width="26" height="24" viewBox="0 0 26 24" fill="none" xmlns="http://www.w3.org/2000/svg">
<path d="M3.98615 8.95043C4.65653 6.17301 6.88803 4.00437 9.74596 3.35288C11.8099 2.88237 13.9579 2.88237 16.0219 3.35288C18.8798 4.00437 21.1113 6.17301 21.7817 8.95044C22.2658 10.9563 22.2658 13.0437 21.7817 15.0496C21.1113 17.827 18.8798 19.9956 16.0219 20.6471C13.9579 21.1176 11.8099 21.1176 9.74596 20.6471C6.88803 19.9956 4.65653 17.827 3.98615 15.0496C3.50201 13.0437 3.50201 10.9563 3.98615 8.95043Z" stroke="#F8774A" stroke-width="1.5"/>
<path d="M11.0131 11.2959C11.2223 10.7877 11.6367 10.385 12.1596 10.1817L14.2564 9.3666C15.0964 9.04008 15.9299 9.85016 15.5939 10.6665L14.7552 12.7042C14.546 13.2124 14.1317 13.6151 13.6087 13.8184L11.512 14.6334C10.672 14.96 9.83843 14.1499 10.1744 13.3336L11.0131 11.2959Z" stroke="#F8774A" stroke-width="1.5" stroke-linecap="round" stroke-linejoin="round"/>
</svg>
