<svg width="25" height="24" viewBox="0 0 25 24" fill="none" xmlns="http://www.w3.org/2000/svg">
<path d="M9.93372 4.58646C10.8373 2.47118 13.8582 2.47118 14.7619 4.58646L15.3913 6.05983C15.7613 6.9261 16.5738 7.52663 17.5161 7.63041L19.2725 7.82385C21.4906 8.06813 22.4068 10.7755 20.7868 12.2988L19.2955 13.7012C18.6398 14.3177 18.3501 15.2258 18.5287 16.1045L18.8888 17.8758C19.3446 20.118 16.8729 21.8109 14.9221 20.5927L13.7442 19.8572C12.8907 19.3242 11.8049 19.3242 10.9514 19.8572L9.77346 20.5927C7.82265 21.8109 5.351 20.118 5.80676 17.8758L6.16682 16.1045C6.34543 15.2258 6.05572 14.3177 5.40005 13.7012L3.90878 12.2988C2.28881 10.7755 3.20496 8.06813 5.42306 7.82385L7.17946 7.63041C8.12179 7.52663 8.93426 6.9261 9.30432 6.05983L9.93372 4.58646Z" stroke="#F8774A" stroke-width="1.5" stroke-linecap="round" stroke-linejoin="round"/>
</svg>
