<svg width="26" height="24" viewBox="0 0 26 24" fill="none" xmlns="http://www.w3.org/2000/svg">
<path d="M5.70996 19.1115C5.70996 16.6984 7.40729 14.643 9.714 14.2627L9.92178 14.2284C11.7689 13.9239 13.651 13.9239 15.4981 14.2284L15.7059 14.2627C18.0126 14.643 19.71 16.6984 19.71 19.1115C19.71 20.1545 18.8915 21 17.8818 21H7.53809C6.52844 21 5.70996 20.1545 5.70996 19.1115Z" stroke="#F8774A" stroke-width="1.5"/>
<path d="M16.7933 6.9375C16.7933 9.11212 14.9651 10.875 12.71 10.875C10.4548 10.875 8.62665 9.11212 8.62665 6.9375C8.62665 4.76288 10.4548 3 12.71 3C14.9651 3 16.7933 4.76288 16.7933 6.9375Z" stroke="#F8774A" stroke-width="1.5"/>
</svg>
