<svg width="26" height="24" viewBox="0 0 26 24" fill="none" xmlns="http://www.w3.org/2000/svg">
<path d="M10.4522 7L10.2452 7.47905C9.91092 8.25243 9.82691 9.10637 10.0043 9.92729C10.275 11.1799 11.3011 12.1473 12.5976 12.3723L12.7117 12.3921C13.1229 12.4635 13.5438 12.4635 13.955 12.3921L14.0691 12.3723C15.3656 12.1473 16.3917 11.1799 16.6624 9.92729C16.8398 9.10637 16.7558 8.25243 16.4215 7.47905L16.2145 7" stroke="#F8774A" stroke-width="1.5" stroke-linecap="round"/>
<path d="M21.7924 15.143C21.2057 17.6504 19.2002 19.6204 16.6284 20.2251C14.4671 20.7334 12.1996 20.7334 10.0382 20.2251C7.46651 19.6204 5.46101 17.6504 4.87431 15.143C4.3501 12.9026 4.47759 10.5648 5.24251 8.39084L5.35615 8.06787C6.19781 5.67585 8.30038 3.91013 10.8578 3.44766L11.5581 3.32102C12.7315 3.10881 13.9352 3.10881 15.1086 3.32102L15.8089 3.44766C18.3663 3.91013 20.4689 5.67586 21.3105 8.06789L21.4242 8.39084C22.1891 10.5648 22.3166 12.9026 21.7924 15.143Z" stroke="#F8774A" stroke-width="1.5"/>
</svg>
