<svg width="2600" height="2600" viewBox="0 0 2600 2600" fill="none" xmlns="http://www.w3.org/2000/svg">
<g clip-path="url(#clip0_1221_7730)">
<path fill-rule="evenodd" clip-rule="evenodd" d="M1270.24 2539.58C862.715 2328.78 539.445 1864.99 426.235 1289.1C421.905 1352.27 422.252 1416.72 427.618 1482C470.552 2004.25 821.739 2421.22 1270.24 2539.58Z" fill="#86B95D"/>
<path d="M1894.89 673.785C1889.96 661.341 1895.93 647.245 1908.3 642.13V642.13C1920.41 637.123 1934.32 642.534 1939.86 654.41L2212.52 1238.87C2223.05 1261.44 2212.6 1288.23 2189.58 1297.71V1297.71C2167.07 1306.97 2141.33 1296.04 2132.36 1273.41L1894.89 673.785Z" fill="#F88922"/>
<path d="M1664.54 656.546C1652.06 651.688 1645.8 637.719 1650.47 625.176V625.176C1655.04 612.895 1668.47 606.388 1680.94 610.411L2294.75 808.381C2318.44 816.025 2330.96 841.909 2322.24 865.232V865.232C2313.71 888.032 2288.18 899.454 2265.5 890.619L1664.54 656.546Z" fill="#F88922"/>
<path fill-rule="evenodd" clip-rule="evenodd" d="M1263.3 2576.62C1647.38 2317.44 1935.74 1824.24 2003.6 1239.33C2008.39 1283.51 2010.86 1328.7 2010.86 1374.78C2010.86 1899.19 1691.2 2386.2 1263.3 2576.62Z" fill="#86B95D"/>
<path fill-rule="evenodd" clip-rule="evenodd" d="M1359.73 124.013C1486 142.282 1601.78 193.439 1703.67 270.811C1798.28 349.682 1876.22 458.689 1933.92 589.012C1835.47 434.872 1703.14 319.099 1541.62 255.996C1253.01 143.237 911.513 224.68 590.952 447.93C806.731 211.086 1081.47 83.7512 1359.73 124.013Z" fill="#86B95D"/>
<rect x="490.016" y="541.8" width="62.576" height="322.342" rx="31.288" transform="rotate(31.9623 490.016 541.8)" fill="#F88922"/>
<rect x="596.194" y="608.05" width="62.576" height="322.342" rx="31.288" transform="rotate(31.9623 596.194 608.05)" fill="#F88922"/>
<rect x="702.373" y="674.3" width="62.576" height="322.342" rx="31.288" transform="rotate(31.9623 702.373 674.3)" fill="#F88922"/>
<path fill-rule="evenodd" clip-rule="evenodd" d="M394.773 812.876C364.541 786.053 346.9 771.169 335.297 789.764C315.12 822.102 314.54 919.525 405.707 976.409C496.874 1033.29 581.069 988.042 601.247 955.704C612.351 937.907 603.662 934.975 578.405 926.455C570.902 923.924 561.937 920.899 551.595 916.845L548.032 922.555C538.867 937.243 519.531 941.72 504.843 932.556C490.155 923.391 485.678 904.055 494.842 889.367L494.945 889.202C491.721 887.305 488.434 885.314 485.085 883.225C469.728 873.642 455.866 863.719 443.337 853.995L440.862 857.962C431.657 872.714 412.237 877.211 397.485 868.007C382.733 858.802 378.235 839.381 387.44 824.629L394.773 812.876Z" fill="#F88922"/>
<path d="M355.731 1008.33C363.266 997.28 378.085 993.971 389.606 1000.77V1000.77C401.128 1007.57 405.397 1022.14 399.366 1034.08L267.378 1295.41C255.764 1318.4 227.126 1326.78 204.948 1313.68V1313.68C182.794 1300.58 176.31 1271.49 190.807 1250.23L355.731 1008.33Z" fill="#86B95D"/>
<path fill-rule="evenodd" clip-rule="evenodd" d="M1103.31 1110.34C1103.43 1110.47 1103.55 1110.6 1103.67 1110.73C1167.88 1180.96 1274.67 1187.83 1342.2 1126.08C1409.73 1064.33 1412.42 957.35 1348.22 887.128C1348.14 887.048 1348.07 886.969 1348 886.889C1347.83 886.707 1347.66 886.524 1347.5 886.342C1253.56 783.609 1122.67 750.384 1055.14 812.131C987.608 873.879 1009.01 1007.22 1102.95 1109.95C1103.07 1110.08 1103.19 1110.21 1103.31 1110.34Z" fill="#F88922"/>
<path d="M1363.25 1185.5C1354.89 1175.06 1356.06 1159.92 1365.94 1150.89V1150.89C1375.81 1141.87 1390.99 1142.05 1400.64 1151.31L1611.89 1354.01C1630.48 1371.85 1630.11 1401.69 1611.09 1419.05V1419.05C1592.08 1436.41 1562.37 1434.09 1546.28 1414.01L1363.25 1185.5Z" fill="#F88922"/>
<path d="M1054.48 906.415L1061.7 940.387C1070.69 982.653 1093.11 1020.87 1125.63 1049.33L1138.95 1060.98" stroke="white" stroke-width="22" stroke-linecap="round"/>
<circle cx="1166.69" cy="1084.76" r="11.8897" fill="white"/>
</g>
<defs>
<clipPath id="clip0_1221_7730">
<rect width="2600" height="2600" fill="white"/>
</clipPath>
</defs>
</svg>
