<svg width="660" height="660" viewBox="0 0 660 660" fill="none" xmlns="http://www.w3.org/2000/svg">
<path fill-rule="evenodd" clip-rule="evenodd" d="M332.563 486.394C281.15 459.799 240.366 401.287 226.084 328.633C225.537 336.602 225.581 344.733 226.258 352.969C231.675 418.856 275.98 471.46 332.563 486.394Z" fill="#86B95D"/>
<path d="M411.369 251.005C410.747 249.435 411.501 247.656 413.061 247.011V247.011C414.589 246.379 416.343 247.062 417.042 248.56L451.442 322.296C452.77 325.143 451.452 328.523 448.547 329.719V329.719C445.707 330.888 442.46 329.509 441.329 326.653L411.369 251.005Z" fill="#F88922"/>
<path d="M382.308 248.83C380.734 248.217 379.944 246.454 380.533 244.872V244.872C381.11 243.322 382.804 242.502 384.378 243.009L461.815 267.985C464.805 268.949 466.384 272.215 465.283 275.157V275.157C464.207 278.034 460.987 279.475 458.125 278.36L382.308 248.83Z" fill="#F88922"/>
<path fill-rule="evenodd" clip-rule="evenodd" d="M331.688 491.066C380.144 458.368 416.523 396.146 425.084 322.353C425.689 327.928 426 333.628 426 339.442C426 405.602 385.671 467.042 331.688 491.066Z" fill="#86B95D"/>
<path fill-rule="evenodd" clip-rule="evenodd" d="M343.854 181.645C359.785 183.95 374.393 190.405 387.247 200.167C399.183 210.118 409.015 223.869 416.294 240.31C403.874 220.863 387.178 206.257 366.801 198.296C330.39 184.071 287.307 194.345 246.865 222.511C274.087 192.63 308.749 176.566 343.854 181.645Z" fill="#86B95D"/>
<rect x="234.13" y="234.353" width="7.89459" height="40.6667" rx="3.9473" transform="rotate(31.9623 234.13 234.353)" fill="#F88922"/>
<rect x="247.526" y="242.711" width="7.89459" height="40.6667" rx="3.9473" transform="rotate(31.9623 247.526 242.711)" fill="#F88922"/>
<rect x="260.921" y="251.069" width="7.89459" height="40.6667" rx="3.9473" transform="rotate(31.9623 260.921 251.069)" fill="#F88922"/>
<path fill-rule="evenodd" clip-rule="evenodd" d="M222.114 268.552C218.3 265.168 216.075 263.291 214.611 265.636C212.065 269.716 211.992 282.007 223.494 289.184C234.995 296.36 245.617 290.651 248.163 286.572C249.564 284.326 248.468 283.956 245.281 282.881C244.335 282.562 243.204 282.181 241.899 281.669L241.449 282.389C240.293 284.242 237.854 284.807 236.001 283.651C234.148 282.495 233.583 280.055 234.739 278.202L234.752 278.182C234.345 277.942 233.931 277.691 233.508 277.427C231.571 276.219 229.822 274.967 228.241 273.74L227.929 274.24C226.768 276.102 224.317 276.669 222.456 275.508C220.595 274.346 220.028 271.896 221.189 270.035L222.114 268.552Z" fill="#F88922"/>
<path d="M217.189 293.211C218.139 291.817 220.009 291.399 221.463 292.257V292.257C222.916 293.114 223.455 294.953 222.694 296.459L206.042 329.429C204.577 332.33 200.964 333.387 198.166 331.733V331.733C195.371 330.081 194.553 326.412 196.382 323.729L217.189 293.211Z" fill="#86B95D"/>
<path fill-rule="evenodd" clip-rule="evenodd" d="M311.495 306.071C311.512 306.091 311.531 306.11 311.549 306.13C319.649 314.989 333.123 315.856 341.642 308.066C350.162 300.276 350.501 286.779 342.401 277.92C342.39 277.908 342.379 277.896 342.368 277.884L342.31 277.821C330.459 264.86 313.946 260.668 305.426 268.458C296.907 276.248 299.607 293.07 311.458 306.031L311.495 306.071Z" fill="#F88922"/>
<path d="M344.298 315.562C343.243 314.245 343.391 312.335 344.636 311.196V311.196C345.882 310.057 347.797 310.081 349.015 311.249L375.666 336.822C378.012 339.072 377.965 342.836 375.565 345.028V345.028C373.167 347.217 369.418 346.925 367.389 344.391L344.298 315.562Z" fill="#F88922"/>
<path d="M305.344 280.353L305.79 282.455C307.225 289.205 310.807 295.309 316 299.853V299.853" stroke="white" stroke-width="3" stroke-linecap="round"/>
<circle cx="319.5" cy="302.853" r="1.5" fill="white"/>
</svg>
