<svg width="419" height="401" viewBox="0 0 419 401" fill="none" xmlns="http://www.w3.org/2000/svg">
<path fill-rule="evenodd" clip-rule="evenodd" d="M226.563 350.041C175.15 323.446 134.366 264.934 120.084 192.28C119.537 200.249 119.581 208.38 120.258 216.615C125.675 282.503 169.98 335.107 226.563 350.041Z" fill="#86B95D"/>
<path d="M305.369 114.651C304.747 113.081 305.501 111.303 307.061 110.658C308.589 110.026 310.343 110.709 311.042 112.207L345.442 185.943C346.77 188.79 345.452 192.169 342.547 193.365C339.707 194.535 336.46 193.155 335.329 190.3L305.369 114.651Z" fill="#F88922"/>
<path d="M276.308 112.476C274.734 111.864 273.944 110.101 274.533 108.519C275.11 106.969 276.804 106.149 278.378 106.656L355.815 131.632C358.805 132.596 360.384 135.862 359.283 138.804C358.207 141.681 354.987 143.122 352.125 142.007L276.308 112.476Z" fill="#F88922"/>
<path fill-rule="evenodd" clip-rule="evenodd" d="M225.688 354.713C274.144 322.015 310.523 259.793 319.084 186C319.689 191.575 320 197.275 320 203.089C320 269.249 279.671 330.689 225.688 354.713Z" fill="#86B95D"/>
<path fill-rule="evenodd" clip-rule="evenodd" d="M237.854 45.292C253.784 47.5971 268.393 54.0518 281.247 63.8142C293.183 73.7645 303.015 87.5161 310.294 103.957C297.874 84.5102 281.178 69.9042 260.801 61.943C224.39 47.7173 181.307 57.9921 140.864 86.1573C168.087 56.2772 202.749 40.2126 237.854 45.292Z" fill="#86B95D"/>
<rect x="128.13" y="98" width="7.89459" height="40.6667" rx="3.9473" transform="rotate(31.9623 128.13 98)" fill="#F88922"/>
<rect x="141.526" y="106.358" width="7.89459" height="40.6667" rx="3.9473" transform="rotate(31.9623 141.526 106.358)" fill="#F88922"/>
<rect x="154.921" y="114.716" width="7.89459" height="40.6667" rx="3.9473" transform="rotate(31.9623 154.921 114.716)" fill="#F88922"/>
<path fill-rule="evenodd" clip-rule="evenodd" d="M116.114 132.199C112.3 128.815 110.075 126.937 108.611 129.283C106.065 133.363 105.992 145.654 117.494 152.83C128.995 160.007 139.617 154.298 142.163 150.218C143.564 147.973 142.468 147.603 139.281 146.528C138.335 146.209 137.204 145.827 135.899 145.316L135.45 146.036C134.293 147.889 131.854 148.454 130.001 147.298C128.148 146.142 127.583 143.702 128.739 141.849L128.752 141.828C128.345 141.589 127.931 141.338 127.508 141.074C125.571 139.865 123.822 138.613 122.241 137.387L121.929 137.887C120.768 139.748 118.317 140.316 116.456 139.154C114.595 137.993 114.028 135.543 115.189 133.682L116.114 132.199Z" fill="#F88922"/>
<path d="M111.189 156.858C112.139 155.464 114.009 155.046 115.463 155.904C116.916 156.761 117.455 158.6 116.694 160.106L100.042 193.075C98.577 195.976 94.9639 197.034 92.166 195.38C89.371 193.728 88.553 190.058 90.3819 187.376L111.189 156.858Z" fill="#86B95D"/>
<path fill-rule="evenodd" clip-rule="evenodd" d="M205.495 169.718C205.512 169.737 205.531 169.757 205.549 169.777C213.649 178.636 227.123 179.503 235.642 171.713C244.162 163.923 244.501 150.426 236.401 141.567C236.39 141.555 236.379 141.543 236.368 141.531L236.31 141.467C224.459 128.507 207.946 124.315 199.426 132.105C190.907 139.895 193.607 156.717 205.458 169.678L205.495 169.718Z" fill="#F88922"/>
<path d="M238.298 179.209C237.243 177.892 237.391 175.982 238.636 174.843C239.882 173.704 241.797 173.728 243.015 174.896L269.666 200.469C272.012 202.719 271.965 206.483 269.565 208.675C267.167 210.864 263.418 210.572 261.389 208.038L238.298 179.209Z" fill="#F88922"/>
<path d="M199.344 144L199.79 146.102C201.225 152.852 204.807 158.956 210 163.5V163.5" stroke="white" stroke-width="3" stroke-linecap="round"/>
<circle cx="213.5" cy="166.5" r="1.5" fill="white"/>
</svg>
